<?xml version="1.0" ?><svg viewBox="0 0 128 128" xmlns="http://www.w3.org/2000/svg"><defs><style>.cls-1{fill:#7ad0cb;}.cls-2{fill:#4d91bb;}.cls-3{fill:#c3edf5;}.cls-4{fill:#2175aa;}.cls-5{fill:#4dbab4;}</style></defs><title/><g data-name="25 Campaign Launch" id="_25_Campaign_Launch"><polygon class="cls-1" points="46 91 64 88 82 91 76 100 52 100 46 91"/><polygon class="cls-2" points="46 64 28 82 28 100 46 91 49 76.66 46 64"/><polygon class="cls-2" points="82 64 100 82 100 100 82 91 79 74.48 82 64"/><polygon class="cls-3" points="82 91 46 91 46 34.29 64 16 82 34.29 82 91"/><circle class="cls-2" cx="64" cy="53.5" r="8"/><path class="cls-4" d="M58,53.5a8,8,0,0,1,7-7.93,8,8,0,1,0,0,15.86A8,8,0,0,1,58,53.5Z"/><rect class="cls-2" height="9" width="9" x="59.5" y="103"/><polygon class="cls-4" points="82 64 83.91 91.95 82 91 82 64"/><polygon class="cls-4" points="46 64 44.09 91.95 46 91 46 64"/><polygon class="cls-5" points="46 91 81.13 92.3 82 91 46 91"/></g></svg>